PathFileType	4	(X/Y/Z)	./resultDataOpenSim/trcMotMarkerGrf/sub06/qtm-02-01.trc
DataRate	CameraRate	NumFrames	NumMarkers	Units	OrigDataRate	OrigDataStartFrame	OrigNumFrames
250.000000	250.000000	6	24	m	250.000000	319	509
Frame#	Time	L.Toe.Tip			R.Toe.Tip			L.Ankle.Lat			R.Ankle.Lat			L.Ankle.Med			R.Ankle.Med			L.Heel			R.Heel			L.Knee.Lat			R.Knee.Lat			L.Knee.Med			R.Knee.Med			L.Thigh.Upper			R.Thigh.Upper			L.ASIS			R.ASIS			V.Sacral			L.Acromium			R.Acromium			C7			L.Elbow			R.Elbow			L.Wrist.Lat			R.Wrist.Lat
		X1	Y1	Z1	X2	Y2	Z2	X3	Y3	Z3	X4	Y4	Z4	X5	Y5	Z5	X6	Y6	Z6	X7	Y7	Z7	X8	Y8	Z8	X9	Y9	Z9	X10	Y10	Z10	X11	Y11	Z11	X12	Y12	Z12	X13	Y13	Z13	X14	Y14	Z14	X15	Y15	Z15	X16	Y16	Z16	X17	Y17	Z17	X18	Y18	Z18	X19	Y19	Z19	X20	Y20	Z20	X21	Y21	Z21	X22	Y22	Z22	X23	Y23	Z23	X24	Y24	Z24

319	1.272	0.46302828	0.10853674	-0.068731743	0.90740994	0.035523822	0.063435343	0.46509922	0.23608049	-0.10991761	0.77176147	0.059118634	0.096862411	0.48572089	0.24766949	-0.029177999	0.7875737	0.085396138	0.010309632	0.41808159	0.29582143	-0.064993	0.71407396	0.040597789	0.041149125	0.79650372	0.41131689	-0.14626841	0.83895447	0.44443602	0.13523476	0.80213514	0.39867178	-0.023796597	0.80006669	0.43745041	0.012607479	0.70296244	0.79897935	-0.13451578	0.75069522	0.80785654	0.20535251	0.78493699	0.8506468	-0.10641047	0.82754445	0.86429273	0.13765275	0.62120436	0.92880359	0.052682296	0.71781381	1.3447106	-0.14712865	0.74537416	1.3209182	0.21271492	0.6566647	1.3689351	0.038864924	0.7071729	1.0212871	-0.20429621	0.67142976	1.0132536	0.28188397	0.89345254	0.86106586	-0.21396427	0.82651522	0.82899707	0.3259046
320	1.276	0.47861395	0.10922023	-0.069315592	0.90738075	0.035536155	0.063448381	0.47880224	0.23688724	-0.11028133	0.77157806	0.059308701	0.0970802	0.49946325	0.24845614	-0.029536363	0.78758708	0.085631097	0.010475419	0.4309771	0.29591751	-0.065189175	0.71398269	0.040813805	0.041409272	0.80866823	0.41456122	-0.14654392	0.83989817	0.44458005	0.13552796	0.81403179	0.40177993	-0.023767252	0.80101648	0.43772177	0.012875811	0.70953738	0.80109423	-0.13465257	0.75574497	0.80892308	0.20562157	0.79106477	0.85257056	-0.10611905	0.83282631	0.86588827	0.138414	0.62588201	0.93042958	0.052924147	0.72337674	1.3464769	-0.1468821	0.75137904	1.3228081	0.21270897	0.66247715	1.3704971	0.039109534	0.71086023	1.0235124	-0.2035004	0.6796733	1.0146271	0.28281554	0.89458182	0.86062608	-0.21528194	0.83849138	0.83289428	0.32497828
321	1.28	0.49440371	0.10971684	-0.070001071	0.90735519	0.035547064	0.06346441	0.49254721	0.23750755	-0.11070073	0.7714447	0.059490814	0.097268348	0.51325695	0.24901028	-0.029919633	0.7876102	0.085864661	0.010671374	0.44387415	0.29570626	-0.065300213	0.71388384	0.04105497	0.041692425	0.82076321	0.41782941	-0.1467552	0.84080161	0.44471527	0.13581032	0.8257181	0.40490765	-0.023671957	0.80171804	0.43793662	0.013132758	0.71626794	0.80320428	-0.13473555	0.76066018	0.80996225	0.20586516	0.79732387	0.85451397	-0.10573103	0.83811762	0.86747112	0.13915545	0.63050125	0.93204495	0.053650982	0.72897458	1.348183	-0.14663795	0.75737424	1.3246543	0.2127039	0.66827326	1.3720167	0.039346868	0.71442096	1.025685	-0.20289425	0.68784158	1.0159811	0.2837599	0.89565205	0.8602006	-0.21661626	0.85039471	0.83686844	0.32400423
322	1.284	0.51041162	0.11003141	-0.070786915	0.90733882	0.035555788	0.06348387	0.5063205	0.23792069	-0.11113389	0.77138685	0.059654308	0.097419	0.52707416	0.24934529	-0.030283401	0.78764291	0.086115088	0.010889993	0.45676548	0.29517877	-0.065329614	0.71381552	0.041323958	0.041933016	0.8327782	0.42112132	-0.14690906	0.84165473	0.44482534	0.13607533	0.83738088	0.40803467	-0.02358065	0.80195919	0.43816228	0.013256254	0.72327532	0.80528463	-0.13471224	0.76536122	0.81095425	0.20609375	0.80370493	0.8564729	-0.10525478	0.84340702	0.86902381	0.1398735	0.63535834	0.93355024	0.054275539	0.73460833	1.3498278	-0.14639765	0.76335948	1.326449	0.21270128	0.67405017	1.3734903	0.03958166	0.71779862	1.027754	-0.20261823	0.69594724	1.0173011	0.28471103	0.89667747	0.85979917	-0.21796275	0.86225809	0.84091773	0.323004
323	1.288	0.52662523	0.11016284	-0.071671957	0.90733517	0.035563036	0.063508638	0.52010325	0.23811876	-0.11152523	0.77137794	0.059811164	0.09754911	0.54088121	0.24946779	-0.030570859	0.78768361	0.086392861	0.011105222	0.4696555	0.29434029	-0.065297953	0.71379776	0.041612604	0.042098474	0.84471161	0.42443241	-0.14700724	0.84245683	0.4449065	0.13631043	0.84912677	0.41120161	-0.023524997	0.80180209	0.43846952	0.013230874	0.73050565	0.80730323	-0.13467155	0.76994122	0.81189673	0.206292	0.81011604	0.85842163	-0.10474048	0.84869436	0.87053011	0.14056731	0.64098907	0.93481869	0.05438743	0.7402623	1.3514089	-0.14615536	0.76933504	1.3281891	0.21270278	0.6798118	1.374918	0.039819505	0.72098462	1.0296859	-0.20270603	0.70401881	1.0185744	0.28565791	0.89767913	0.85943679	-0.21930945	0.87408161	0.845016	0.32198266
324	1.292	0.54301223	0.11010382	-0.072647861	0.9073441	0.035570441	0.063540074	0.5338955	0.23809845	-0.1118479	0.7713896	0.05997477	0.097669774	0.55466278	0.24936311	-0.03076888	0.78773408	0.086691875	0.011293904	0.4825575	0.2931966	-0.065222057	0.71382737	0.041911769	0.042197109	0.85656598	0.42774989	-0.1470624	0.84322531	0.4449761	0.13650555	0.86094992	0.41446455	-0.02348313	0.80177619	0.43888101	0.013160041	0.73778643	0.80925687	-0.13472706	0.77459165	0.81280919	0.20644414	0.81646654	0.86034351	-0.10419947	0.85398538	0.87197978	0.14124086	0.64771969	0.93583916	0.054142703	0.74591778	1.3529233	-0.14591294	0.77530074	1.3298776	0.21271175	0.68556964	1.3762963	0.040060591	0.72408679	1.0315175	-0.20295728	0.71208257	1.0197955	0.28659159	0.89866298	0.85910748	-0.22064816	0.88583843	0.84912938	0.32093448
